<svg xmlns="http://www.w3.org/2000/svg" height="19.2" viewBox="0 0 62.080002 19.200001" width="62.08" version="1.1">
 <g stroke-width="0.32" transform="translate(-.22014 .35404)">
  <path fill="#fff" d="m0 9.6v-9.6h62.08v19.2h-62.08z"/>
  <path fill="#fefefe" d="m2.24 8.32c0-4.3948 0.3722-4.9177 1.6515-2.32l0.74855 1.52 0.097533-1.52c0.088058-1.3723 0.17355-1.52 0.88-1.52 0.73806 0 0.78304 0.10444 0.79264 1.84 0.00857 1.5494 0.073935 1.7562 0.41393 1.3092 0.45879-0.60316 0.79017-0.68024 2.6959-0.62712 1.1789 0.032865 1.3629 0.13382 1.3817 0.75791l0.02166 0.72 0.3336-0.68944c0.29304-0.60561 1.8672-1.287 1.8094-0.78317-0.01215 0.10593 0.0051 0.4806 0.03829 0.8326l0.06039 0.64 0.25747-0.64c0.14161-0.352 0.21724-0.712 0.16807-0.8s0.30353-0.16 0.78378-0.16c0.86573 0 0.87064 0.012298 0.57499 1.44-0.164 0.792-0.39239 1.944-0.50753 2.56-0.17183 0.91929-0.36636 1.1381-1.0856 1.2213-0.6678 0.07717-0.87863-0.037-0.88639-0.48-0.0096-0.55106-0.03226-0.55217-0.43528-0.02126-0.23381 0.308-0.71482 0.56-1.0689 0.56-0.50368 0-0.68838-0.27862-0.8485-1.28-0.23043-1.4411-0.48169-1.5631-1.3171-0.64-0.32846 0.36294-0.41919 0.64-0.2096 0.64 0.20328 0 0.3696 0.288 0.3696 0.64 0 0.42667-0.21333 0.64-0.64 0.64-0.352 0-0.928-0.288-1.28-0.64l-0.64-0.64v0.66346c0 1.1368-1.0557 0.56858-1.8346-0.98744l-0.7193-1.436-0.0033 1.52c-0.00306 1.4071-0.062717 1.52-0.80331 1.52h-0.8zm13.44 0v-3.84h0.78111c0.42961 0 0.85306 0.11641 0.94099 0.25869s0.07486 1.8703-0.02905 3.84c-0.18423 3.4923-0.20763 3.5813-0.94099 3.5813-0.74763 0-0.75206-0.02261-0.75206-3.84zm1.92 1.28v-2.56h1.6c1.0641 0 1.6016 0.13399 1.6049 0.4 0.0089 0.73049 0.62503-0.52084 0.6302-1.28 0.0038-0.55336 0.19006-0.72 0.8049-0.72 0.64 0 0.8 0.16 0.8 0.8 0 0.75214 0.45481 1.0092 1.4371 0.8122 0.1744-0.034974 0.5344-0.05723 0.8-0.049458 0.2656 0.00777 1.9575 0.013565 3.7598 0.012877l3.2769-0.00125 0.57866 0.95153c0.42844 0.70451 0.69922 0.87525 1.0431 0.65772 0.25544-0.16159 0.30122-0.29601 0.10174-0.29871-0.19948-0.00269-0.42487-0.33017-0.50087-0.72772-0.12676-0.66313-0.03736-0.7132 1.0827-0.60639 0.67148 0.064036 1.2231 0.2813 1.2258 0.48282 0.0092 0.69105 0.6253-0.59307 0.6302-1.3136 0.0038-0.55336 0.19005-0.72 0.8049-0.72 0.64 0 0.8 0.16 0.8 0.8 0 0.72 0.128 0.8 1.28 0.8 0.704 0 1.28 0.13546 1.28 0.30102s0.37792 0.10496 0.83982-0.13468c0.92302-0.47887 1.6665-0.34207 2.2802 0.41953 0.35688 0.44293 0.4 0.43631 0.4-0.061439 0-0.47099 0.25745-0.54282 1.653-0.46116 1.5332 0.089717 1.6781 0.16972 2 1.1044 0.29166 0.84693 0.41287 0.93628 0.75965 0.56 0.23822-0.2585 0.27204-0.44772 0.08-0.44772-0.58834 0-0.36791-1.2776 0.22738-1.3179 1.0386-0.07032 1.5182 0.079844 1.92 0.60121 0.33394 0.43332 0.4 0.21828 0.4-1.3021v-1.8212h1.76c1.7422 0 1.76 0.0097 1.76 0.96 0 0.81067-0.12444 0.96-0.8 0.96-0.44 0-0.8 0.16034-0.8 0.35632 0 0.20893 0.3737 0.30147 0.90344 0.22372 0.81081-0.119 0.89214-0.048904 0.79316 0.68368-0.10728 0.79401-0.10165 0.79664 0.20625 0.096277 0.25291-0.57529 0.57586-0.72 1.6068-0.72 1.163 0 1.2903-0.078934 1.2903-0.8 0-0.6495 0.15751-0.8 0.8373-0.8 0.72057 0 0.81598 0.11153 0.68438 0.8-0.104 0.5365-0.011 0.8 0.281 0.8 0.25401 0 0.43563 0.34139 0.43563 0.81889 0 0.4984-0.13355 0.73635-0.34123 0.608-0.22491-0.139-0.30672 0.20907-0.24 1.0211 0.06369 0.7752 0.24954 1.2023 0.50123 1.152 0.23467-0.04693 0.4 0.25067 0.4 0.72 0 0.93922-0.75809 1.0658-1.8409 0.30742-0.62236-0.43592-0.787-0.43826-1.4312-0.02036-0.5766 0.37404-2.0086 0.47366-6.8879 0.47914-6.1188 0.0069-6.16 0.0022-6.16-0.69084v-0.69776l-0.498 0.712c-0.58988 0.84216-1.6218 0.91907-2.4367 0.18161-0.54453-0.4928-0.5852-0.4928-0.5852 0 0 0.81596-2.6776 0.73198-3.52-0.1104-0.61008-0.61008-0.64-0.61204-0.64-0.04194 0 0.53331-0.27561 0.59891-2.5456 0.60584l-2.5456 0.0078-0.11273-1.9658-0.11272-1.9658-0.06166 2c-0.05869 1.9036-0.10024 2-0.86166 2-0.76622 0-0.8-0.08272-0.8-1.9592 0-1.7052-0.06222-1.9075-0.48-1.5608-0.30661 0.25446-0.48 0.96217-0.48 1.9592 0 1.4515-0.05601 1.5608-0.8 1.5608-0.70095 0-0.8-0.13867-0.8-1.12 0-1.2263-0.32292-1.4135-1.0008-0.58009-0.38019 0.46739-0.37067 0.5143 0.07086 0.34922 0.39903-0.14919 0.47797-0.02294 0.3627 0.58009-0.15311 0.80094-0.83134 0.98953-1.6643 0.46278-0.30381-0.19212-0.54772-0.17497-0.68565 0.04821-0.33536 0.54263-1.741 0.03214-2.1291-0.77325-0.34603-0.718-0.35061-0.71611-0.372 0.15304-0.01771 0.71956-0.16751 0.88-0.82166 0.88-0.75531 0-0.8-0.09726-0.8-1.7411 0-0.95761-0.144-1.8301-0.32-1.9389-0.19988-0.12354-0.32 0.53001-0.32 1.7411 0 1.8548-0.03469 1.9389-0.8 1.9389-0.78667 0-0.8-0.04267-0.8-2.56zm37.916 0.89967c0.3361-0.07669 0.29466-0.27389-0.17967-0.85513l-0.61651-0.75545 0.03712 1.3955c0.02042 0.7675 0.10127 1.1523 0.17967 0.85512 0.07841-0.29718 0.33913-0.58518 0.57939-0.64zm-32.133-1.9647c-0.408-0.4086-0.484 0.9891-0.103 1.9187 0.18592 0.45408 0.26328 0.34263 0.34331-0.49452 0.05682-0.59438-0.05118-1.2352-0.24-1.424zm15.631 0.82469c-0.01389-0.836-0.09819-1.3391-0.18733-1.118s-0.29377 0.3206-0.45474 0.22111c-0.33233-0.20539-0.40725 1.8756-0.07933 2.2036 0.51775 0.51775 0.74489 0.10635 0.7214-1.3067zm3.4516-0.47627c-0.07654-0.39805-0.14207-0.14773-0.14563 0.55627-0.0036 0.704 0.05907 1.0297 0.13917 0.72373 0.08009-0.30595 0.083-0.88195 0.0065-1.28zm15.454 0.30437c0-0.50247-0.2006-0.74701-0.63993-0.78011-0.61823-0.04657-0.62095-0.02209-0.08 0.72185 0.69491 0.95568 0.71993 0.9577 0.71993 0.05826zm-18.88-3.7481c0-0.81067 0.12444-0.96 0.8-0.96s0.8 0.14933 0.8 0.96-0.12444 0.96-0.8 0.96-0.8-0.14933-0.8-0.96z"/>
 </g>
</svg>
